<mxfile host="65bd71144e">
    <diagram id="YAeNTMlyQ71uo0wEh7hD" name=" Схема работы сервиса захвата изменений для конкретной таблицы">
        <mxGraphModel dx="1448" dy="933" grid="1" gridSize="10" guides="1" tooltips="1" connect="1" arrows="1" fold="1" page="1" pageScale="1" pageWidth="827" pageHeight="1169" math="0" shadow="0">
            <root>
                <mxCell id="0"/>
                <mxCell id="1" parent="0"/>
                <mxCell id="2" value="&lt;div&gt;&lt;br&gt;&lt;/div&gt;Схема работы сервиса захвата изменений для конкретной таблицы&lt;div&gt;&lt;br&gt;&lt;/div&gt;" style="shape=umlFrame;whiteSpace=wrap;html=1;pointerEvents=0;recursiveResize=0;container=1;collapsible=0;width=190;height=60;" vertex="1" parent="1">
                    <mxGeometry x="9" y="40" width="810" height="1340" as="geometry"/>
                </mxCell>
                <mxCell id="19" style="edgeStyle=none;html=1;entryX=0.5;entryY=1;entryDx=0;entryDy=0;exitX=0.932;exitY=0.127;exitDx=0;exitDy=0;exitPerimeter=0;" edge="1" parent="2" source="3" target="17">
                    <mxGeometry relative="1" as="geometry"/>
                </mxCell>
                <mxCell id="3" value="&lt;div&gt;&lt;br&gt;&lt;/div&gt;Источник" style="strokeWidth=2;html=1;shape=mxgraph.flowchart.database;whiteSpace=wrap;" vertex="1" parent="2">
                    <mxGeometry x="10" y="170" width="90" height="60" as="geometry"/>
                </mxCell>
                <mxCell id="11" value="" style="edgeStyle=none;html=1;exitX=0.5;exitY=1;exitDx=0;exitDy=0;exitPerimeter=0;" edge="1" parent="2" source="15" target="10">
                    <mxGeometry relative="1" as="geometry"/>
                </mxCell>
                <mxCell id="9" value="Сервис заданий&lt;div&gt;по рассписанию&lt;/div&gt;" style="strokeWidth=2;html=1;shape=mxgraph.flowchart.decision;whiteSpace=wrap;" vertex="1" parent="2">
                    <mxGeometry x="290" y="100" width="140" height="100" as="geometry"/>
                </mxCell>
                <mxCell id="28" style="edgeStyle=none;html=1;entryX=1;entryY=0.25;entryDx=0;entryDy=0;" edge="1" parent="2" source="10" target="27">
                    <mxGeometry relative="1" as="geometry"/>
                </mxCell>
                <mxCell id="29" value="Получить&lt;div&gt;новые изменения&lt;/div&gt;" style="edgeLabel;html=1;align=center;verticalAlign=middle;resizable=0;points=[];" vertex="1" connectable="0" parent="28">
                    <mxGeometry x="0.206" y="2" relative="1" as="geometry">
                        <mxPoint x="17" y="5" as="offset"/>
                    </mxGeometry>
                </mxCell>
                <mxCell id="39" value="" style="edgeStyle=none;html=1;entryX=0.5;entryY=0;entryDx=0;entryDy=0;" edge="1" parent="2" source="10" target="40">
                    <mxGeometry relative="1" as="geometry">
                        <mxPoint x="360" y="395" as="targetPoint"/>
                    </mxGeometry>
                </mxCell>
                <mxCell id="10" value="Запрос новых изменений" style="whiteSpace=wrap;html=1;strokeWidth=2;" vertex="1" parent="2">
                    <mxGeometry x="300" y="310" width="120" height="40" as="geometry"/>
                </mxCell>
                <mxCell id="16" value="" style="edgeStyle=none;html=1;exitX=0.5;exitY=1;exitDx=0;exitDy=0;exitPerimeter=0;" edge="1" parent="2" source="9" target="15">
                    <mxGeometry relative="1" as="geometry">
                        <mxPoint x="390" y="340" as="sourcePoint"/>
                        <mxPoint x="390" y="430" as="targetPoint"/>
                    </mxGeometry>
                </mxCell>
                <mxCell id="15" value="Интервал опроса" style="strokeWidth=2;html=1;shape=mxgraph.flowchart.delay;whiteSpace=wrap;" vertex="1" parent="2">
                    <mxGeometry x="300" y="220" width="120" height="30" as="geometry"/>
                </mxCell>
                <mxCell id="22" style="edgeStyle=none;html=1;exitX=0.25;exitY=1;exitDx=0;exitDy=0;" edge="1" parent="2" source="17" target="3">
                    <mxGeometry relative="1" as="geometry"/>
                </mxCell>
                <mxCell id="17" value="Исходная таблица" style="html=1;whiteSpace=wrap;" vertex="1" parent="2">
                    <mxGeometry x="70" y="100" width="70" height="30" as="geometry"/>
                </mxCell>
                <mxCell id="25" style="edgeStyle=none;html=1;exitX=0.25;exitY=0;exitDx=0;exitDy=0;" edge="1" parent="2" source="18" target="3">
                    <mxGeometry relative="1" as="geometry"/>
                </mxCell>
                <mxCell id="18" value="Служебная таблица CDC" style="html=1;whiteSpace=wrap;" vertex="1" parent="2">
                    <mxGeometry x="10" y="280" width="90" height="30" as="geometry"/>
                </mxCell>
                <mxCell id="20" style="edgeStyle=none;html=1;entryX=0.586;entryY=0.004;entryDx=0;entryDy=0;entryPerimeter=0;" edge="1" parent="2" source="3" target="18">
                    <mxGeometry relative="1" as="geometry"/>
                </mxCell>
                <mxCell id="32" style="edgeStyle=none;html=1;exitX=1;exitY=1;exitDx=0;exitDy=0;entryX=0;entryY=0.5;entryDx=0;entryDy=0;" edge="1" parent="2" source="27" target="10">
                    <mxGeometry relative="1" as="geometry"/>
                </mxCell>
                <mxCell id="27" value="" style="verticalLabelPosition=bottom;verticalAlign=top;html=1;shape=process;whiteSpace=wrap;rounded=1;size=0.14;arcSize=6;" vertex="1" parent="2">
                    <mxGeometry x="130" y="230" width="100" height="40" as="geometry"/>
                </mxCell>
                <mxCell id="30" style="edgeStyle=none;html=1;entryX=1;entryY=0.5;entryDx=0;entryDy=0;entryPerimeter=0;" edge="1" parent="2" source="27" target="3">
                    <mxGeometry relative="1" as="geometry"/>
                </mxCell>
                <mxCell id="31" style="edgeStyle=none;html=1;entryX=0;entryY=0.5;entryDx=0;entryDy=0;exitX=1;exitY=0.85;exitDx=0;exitDy=0;exitPerimeter=0;" edge="1" parent="2" source="3" target="27">
                    <mxGeometry relative="1" as="geometry"/>
                </mxCell>
                <mxCell id="33" value="Новые изменения&lt;div&gt;запрашиваются по&amp;nbsp;&lt;/div&gt;&lt;div&gt;номеру последней прочитанной строки&lt;/div&gt;" style="strokeWidth=2;html=1;shape=mxgraph.flowchart.annotation_1;align=left;pointerEvents=1;" vertex="1" parent="2">
                    <mxGeometry x="480" y="300" width="190" height="50" as="geometry"/>
                </mxCell>
                <mxCell id="37" value="" style="endArrow=none;html=1;entryX=0;entryY=0.5;entryDx=0;entryDy=0;entryPerimeter=0;" edge="1" parent="2" target="33">
                    <mxGeometry width="50" height="50" relative="1" as="geometry">
                        <mxPoint x="420" y="325" as="sourcePoint"/>
                        <mxPoint x="480" y="280" as="targetPoint"/>
                    </mxGeometry>
                </mxCell>
                <mxCell id="45" style="edgeStyle=none;html=1;entryX=0.5;entryY=0;entryDx=0;entryDy=0;" edge="1" parent="2" source="40" target="44">
                    <mxGeometry relative="1" as="geometry"/>
                </mxCell>
                <mxCell id="40" value="" style="verticalLabelPosition=bottom;verticalAlign=top;html=1;shape=process;whiteSpace=wrap;rounded=1;size=0.14;arcSize=6;" vertex="1" parent="2">
                    <mxGeometry x="310" y="380" width="100" height="60" as="geometry"/>
                </mxCell>
                <mxCell id="42" value="&lt;span style=&quot;color: rgb(0, 0, 0);&quot;&gt;Поиск связанных приемников данных&lt;/span&gt;" style="text;html=1;align=center;verticalAlign=middle;whiteSpace=wrap;rounded=0;" vertex="1" parent="2">
                    <mxGeometry x="330" y="395" width="60" height="30" as="geometry"/>
                </mxCell>
                <mxCell id="43" value="&lt;span style=&quot;color: rgb(0, 0, 0);&quot;&gt;Провайдер&lt;/span&gt;" style="text;html=1;align=center;verticalAlign=middle;whiteSpace=wrap;rounded=0;" vertex="1" parent="2">
                    <mxGeometry x="150" y="235" width="60" height="30" as="geometry"/>
                </mxCell>
                <mxCell id="48" value="" style="edgeStyle=none;html=1;" edge="1" parent="2" source="44" target="47">
                    <mxGeometry relative="1" as="geometry"/>
                </mxCell>
                <mxCell id="44" value="&lt;div&gt;&lt;br&gt;&lt;/div&gt;" style="verticalLabelPosition=bottom;verticalAlign=top;html=1;shape=hexagon;perimeter=hexagonPerimeter2;arcSize=6;size=0.27;" vertex="1" parent="2">
                    <mxGeometry x="310" y="470" width="100" height="60" as="geometry"/>
                </mxCell>
                <mxCell id="46" value="Для каждого приеменика&lt;div style=&quot;color: rgb(63, 63, 63); scrollbar-color: rgb(226, 226, 226) rgb(251, 251, 251);&quot;&gt;&lt;br style=&quot;color: rgb(63, 63, 63); scrollbar-color: rgb(226, 226, 226) rgb(251, 251, 251); text-wrap-mode: nowrap;&quot;&gt;&lt;/div&gt;" style="text;html=1;align=center;verticalAlign=middle;whiteSpace=wrap;rounded=0;" vertex="1" parent="2">
                    <mxGeometry x="330" y="485" width="60" height="30" as="geometry"/>
                </mxCell>
                <mxCell id="57" style="edgeStyle=none;html=1;" edge="1" parent="2" source="47" target="56">
                    <mxGeometry relative="1" as="geometry"/>
                </mxCell>
                <mxCell id="58" value="Да" style="edgeLabel;html=1;align=center;verticalAlign=middle;resizable=0;points=[];" vertex="1" connectable="0" parent="57">
                    <mxGeometry x="-0.4564" y="-1" relative="1" as="geometry">
                        <mxPoint as="offset"/>
                    </mxGeometry>
                </mxCell>
                <mxCell id="47" value="&lt;div&gt;&lt;br&gt;&lt;/div&gt;&lt;div&gt;&lt;span style=&quot;color: rgb(63, 63, 63); background-color: transparent;&quot;&gt;Пройден фильтр?&lt;/span&gt;&lt;/div&gt;" style="rhombus;whiteSpace=wrap;html=1;verticalAlign=top;arcSize=6;" vertex="1" parent="2">
                    <mxGeometry x="320" y="570" width="80" height="70" as="geometry"/>
                </mxCell>
                <mxCell id="54" value="" style="endArrow=classic;html=1;entryX=0;entryY=0.5;entryDx=0;entryDy=0;exitX=0;exitY=0.5;exitDx=0;exitDy=0;" edge="1" parent="2" source="47" target="44">
                    <mxGeometry width="50" height="50" relative="1" as="geometry">
                        <mxPoint x="350" y="620" as="sourcePoint"/>
                        <mxPoint x="400" y="570" as="targetPoint"/>
                        <Array as="points">
                            <mxPoint x="190" y="605"/>
                        </Array>
                    </mxGeometry>
                </mxCell>
                <mxCell id="55" value="Нет" style="edgeLabel;html=1;align=center;verticalAlign=middle;resizable=0;points=[];" vertex="1" connectable="0" parent="54">
                    <mxGeometry x="-0.6024" relative="1" as="geometry">
                        <mxPoint as="offset"/>
                    </mxGeometry>
                </mxCell>
                <mxCell id="60" value="" style="edgeStyle=none;html=1;" edge="1" parent="2" source="56">
                    <mxGeometry relative="1" as="geometry">
                        <mxPoint x="358" y="750" as="targetPoint"/>
                    </mxGeometry>
                </mxCell>
                <mxCell id="56" value="Обработка данных" style="shape=parallelogram;perimeter=parallelogramPerimeter;whiteSpace=wrap;html=1;fixedSize=1;" vertex="1" parent="2">
                    <mxGeometry x="290" y="670" width="135" height="50" as="geometry"/>
                </mxCell>
                <mxCell id="72" value="" style="edgeStyle=none;html=1;entryX=0.5;entryY=0;entryDx=0;entryDy=0;" edge="1" parent="2" source="61" target="63">
                    <mxGeometry relative="1" as="geometry">
                        <mxPoint x="358.2549999999999" y="840" as="targetPoint"/>
                    </mxGeometry>
                </mxCell>
                <mxCell id="61" value="" style="verticalLabelPosition=bottom;verticalAlign=top;html=1;shape=process;whiteSpace=wrap;rounded=1;size=0.14;arcSize=6;" vertex="1" parent="2">
                    <mxGeometry x="308" y="750" width="100" height="60" as="geometry"/>
                </mxCell>
                <mxCell id="62" value="Отправка данных в приемник" style="text;html=1;align=center;verticalAlign=middle;whiteSpace=wrap;rounded=0;" vertex="1" parent="2">
                    <mxGeometry x="328" y="765" width="60" height="30" as="geometry"/>
                </mxCell>
                <mxCell id="81" value="" style="edgeStyle=none;html=1;" edge="1" parent="2" source="63">
                    <mxGeometry relative="1" as="geometry">
                        <mxPoint x="356.79429175475707" y="1010.2706131078223" as="targetPoint"/>
                    </mxGeometry>
                </mxCell>
                <mxCell id="82" value="Да" style="edgeLabel;html=1;align=center;verticalAlign=middle;resizable=0;points=[];" vertex="1" connectable="0" parent="81">
                    <mxGeometry x="-0.3699" y="2" relative="1" as="geometry">
                        <mxPoint as="offset"/>
                    </mxGeometry>
                </mxCell>
                <mxCell id="86" style="edgeStyle=none;html=1;" edge="1" parent="2" source="63" target="85">
                    <mxGeometry relative="1" as="geometry"/>
                </mxCell>
                <mxCell id="87" value="Нет" style="edgeLabel;html=1;align=center;verticalAlign=middle;resizable=0;points=[];" vertex="1" connectable="0" parent="86">
                    <mxGeometry x="-0.115" relative="1" as="geometry">
                        <mxPoint as="offset"/>
                    </mxGeometry>
                </mxCell>
                <mxCell id="63" value="&lt;div&gt;&lt;br&gt;&lt;/div&gt;&lt;div&gt;Данные уcпешно&amp;nbsp;&lt;/div&gt;&lt;div&gt;приняты получателем?&lt;/div&gt;" style="rhombus;whiteSpace=wrap;html=1;verticalAlign=top;rounded=1;arcSize=6;" vertex="1" parent="2">
                    <mxGeometry x="275" y="880" width="165" height="70" as="geometry"/>
                </mxCell>
                <mxCell id="92" style="edgeStyle=none;html=1;entryX=0;entryY=0.25;entryDx=0;entryDy=0;" edge="1" parent="2" source="73" target="61">
                    <mxGeometry relative="1" as="geometry"/>
                </mxCell>
                <mxCell id="73" value="Запись статуса &quot;Ошибка&quot;" style="shape=parallelogram;perimeter=parallelogramPerimeter;whiteSpace=wrap;html=1;fixedSize=1;" vertex="1" parent="2">
                    <mxGeometry x="110" y="750" width="132" height="30" as="geometry"/>
                </mxCell>
                <mxCell id="91" style="edgeStyle=none;html=1;entryX=0.5;entryY=1;entryDx=0;entryDy=0;" edge="1" parent="2" source="76" target="73">
                    <mxGeometry relative="1" as="geometry"/>
                </mxCell>
                <mxCell id="76" value="ПопыткиОтправки++" style="shape=parallelogram;perimeter=parallelogramPerimeter;whiteSpace=wrap;html=1;fixedSize=1;" vertex="1" parent="2">
                    <mxGeometry x="96" y="810" width="160" height="30" as="geometry"/>
                </mxCell>
                <mxCell id="100" style="edgeStyle=none;html=1;entryX=0;entryY=0.5;entryDx=0;entryDy=0;" edge="1" parent="2" source="85" target="98">
                    <mxGeometry relative="1" as="geometry">
                        <Array as="points">
                            <mxPoint x="160" y="1095"/>
                        </Array>
                    </mxGeometry>
                </mxCell>
                <mxCell id="101" value="Да" style="edgeLabel;html=1;align=center;verticalAlign=middle;resizable=0;points=[];" vertex="1" connectable="0" parent="100">
                    <mxGeometry x="-0.5528" y="2" relative="1" as="geometry">
                        <mxPoint as="offset"/>
                    </mxGeometry>
                </mxCell>
                <mxCell id="85" value="&lt;div&gt;&lt;br&gt;&lt;/div&gt;Кол-во попыток отправки не истекло?" style="rhombus;whiteSpace=wrap;html=1;verticalAlign=top;rounded=1;arcSize=6;" vertex="1" parent="2">
                    <mxGeometry x="90" y="875.5" width="140" height="79" as="geometry"/>
                </mxCell>
                <mxCell id="88" style="edgeStyle=none;html=1;entryX=0.41;entryY=0.99;entryDx=0;entryDy=0;entryPerimeter=0;" edge="1" parent="2" source="85" target="76">
                    <mxGeometry relative="1" as="geometry"/>
                </mxCell>
                <mxCell id="89" value="Нет" style="edgeLabel;html=1;align=center;verticalAlign=middle;resizable=0;points=[];" vertex="1" connectable="0" parent="88">
                    <mxGeometry x="-0.1038" y="1" relative="1" as="geometry">
                        <mxPoint as="offset"/>
                    </mxGeometry>
                </mxCell>
                <mxCell id="99" style="edgeStyle=none;html=1;entryX=0.5;entryY=0;entryDx=0;entryDy=0;" edge="1" parent="2" source="93" target="98">
                    <mxGeometry relative="1" as="geometry"/>
                </mxCell>
                <mxCell id="93" value="Запись статуса &quot;Успешно обработанно&quot;" style="shape=parallelogram;perimeter=parallelogramPerimeter;whiteSpace=wrap;html=1;fixedSize=1;" vertex="1" parent="2">
                    <mxGeometry x="268.25" y="1009" width="178.5" height="30" as="geometry"/>
                </mxCell>
                <mxCell id="96" value="Получение идентификатора последней обработанной строки" style="shape=parallelogram;perimeter=parallelogramPerimeter;whiteSpace=wrap;html=1;fixedSize=1;" vertex="1" parent="2">
                    <mxGeometry x="320" y="260" width="220" height="30" as="geometry"/>
                </mxCell>
                <mxCell id="102" style="edgeStyle=none;html=1;entryX=1;entryY=0.5;entryDx=0;entryDy=0;" edge="1" parent="2" source="98" target="44">
                    <mxGeometry relative="1" as="geometry">
                        <Array as="points">
                            <mxPoint x="620" y="1090"/>
                            <mxPoint x="610" y="500"/>
                        </Array>
                    </mxGeometry>
                </mxCell>
                <mxCell id="104" value="" style="edgeStyle=none;html=1;entryX=0.422;entryY=0.015;entryDx=0;entryDy=0;entryPerimeter=0;" edge="1" parent="2" source="98" target="107">
                    <mxGeometry relative="1" as="geometry">
                        <mxPoint x="358" y="1130" as="targetPoint"/>
                    </mxGeometry>
                </mxCell>
                <mxCell id="98" value="Отправка данных в следующий приемник" style="rounded=0;whiteSpace=wrap;html=1;" vertex="1" parent="2">
                    <mxGeometry x="287" y="1080" width="142" height="30" as="geometry"/>
                </mxCell>
                <mxCell id="105" value="Запись номера последней обработанной строки" style="shape=parallelogram;perimeter=parallelogramPerimeter;whiteSpace=wrap;html=1;fixedSize=1;strokeWidth=2;" vertex="1" parent="2">
                    <mxGeometry x="275" y="1210" width="190" height="40" as="geometry"/>
                </mxCell>
                <mxCell id="107" value="Все приемники данных обработаны" style="rounded=0;whiteSpace=wrap;html=1;" vertex="1" parent="2">
                    <mxGeometry x="256" y="1140" width="245" height="30" as="geometry"/>
                </mxCell>
                <mxCell id="109" style="edgeStyle=none;html=1;entryX=0.545;entryY=0.05;entryDx=0;entryDy=0;entryPerimeter=0;" edge="1" parent="2" source="107" target="105">
                    <mxGeometry relative="1" as="geometry"/>
                </mxCell>
                <mxCell id="110" style="edgeStyle=none;html=1;entryX=1;entryY=0.5;entryDx=0;entryDy=0;entryPerimeter=0;" edge="1" parent="2" source="105" target="9">
                    <mxGeometry relative="1" as="geometry">
                        <Array as="points">
                            <mxPoint x="780" y="1230"/>
                            <mxPoint x="770" y="650"/>
                            <mxPoint x="770" y="150"/>
                        </Array>
                    </mxGeometry>
                </mxCell>
            </root>
        </mxGraphModel>
    </diagram>
</mxfile>